<?xml version="1.0" ?><!DOCTYPE svg  PUBLIC '-//W3C//DTD SVG 1.1//EN'  'http://www.w3.org/Graphics/SVG/1.1/DTD/svg11.dtd'><svg enable-background="new 0 0 512 512" height="512px" id="Layer_1" version="1.1" viewBox="0 0 512 512" width="512px" xml:space="preserve" xmlns="http://www.w3.org/2000/svg" xmlns:xlink="http://www.w3.org/1999/xlink"><path clip-rule="evenodd" d="M254.058,511c-77.882,0-149.333-27.441-205.245-73.142l3.213-35.084  c8.075-36.636,53.391-53.346,67.027-69.148c21.831-66.217,13.71-162.909,13.71-162.909s5.974,18.127,13.572,26.938  c17.556,63.928,41.18,81.023,41.18,81.023c4.173,4.608,7.837,8.23,10.395,10.569c9.495,21.911,1.169,43.028,0.109,45.543  c0,0,15.666,25.438,55.323,27.552c-0.508,0.026-1.017,0.049-1.526,0.072c-0.377,0.007-0.622,0.014-0.477,0.023  c0.157-0.009,0.318-0.016,0.477-0.023c0.445-0.008,1.111-0.016,1.928-0.023v0.158c0.834,0,1.592-0.076,2.406-0.096  c0.814,0.02,1.571,0.096,2.405,0.096v-0.191c39.951-1.965,55.726-27.569,55.726-27.569c-1.06-2.515-9.386-23.632,0.11-45.543  c2.558-2.34,6.222-5.961,10.395-10.569c0,0,23.624-17.095,41.179-81.023c7.599-8.811,13.572-26.938,13.572-26.938  s-8.121,96.692,13.71,162.909c13.637,15.802,58.952,32.512,67.027,69.148l2.913,31.808C406.716,482.229,333.767,511,254.058,511z   M254.417,362.386c2.162-0.018,4.572-0.037,4.139-0.062v0.035c-0.795,0.039-1.591,0.075-2.405,0.095  C255.563,362.44,254.993,362.41,254.417,362.386z M253.744,362.359c0.222,0.011,0.449,0.018,0.672,0.027  c-0.228,0.002-0.454,0.004-0.672,0.006V362.359z M253.744,362.324v0.035c-0.133-0.007-0.27-0.009-0.403-0.017  C253.476,362.336,253.611,362.332,253.744,362.324z M268.088,175.188c47.57-24.747,95.506-13.079,95.506-13.079  c2.525,0.389,10.412,1.283-3.184,14.715c-9.759,9.641-12.815,31.826-25.468,42.511c-7.566,6.388-31.451,8.236-49.344,3.27  c-16.053-4.457-16.265-27.222-28.652-31.862v-0.486c-13.993,3.209-13.529,27.707-30.243,32.348  c-17.894,4.967-41.78,3.118-49.345-3.27c-12.653-10.686-15.709-32.87-25.469-42.511c-13.595-13.432-5.708-14.326-3.184-14.715  c0,0,47.936-11.668,95.506,13.079c4.926,2.564,9.128,3.88,12.734,4.345v-0.26C260.185,178.657,263.868,177.383,268.088,175.188z   M284.383,214.709c10.685,5.896,47.147,9.531,54.825-10.747c8.181-21.608,11.652-34.346-2.964-36.849  c-19.669-3.369-53.568,7.253-59.27,15.354C271.272,190.567,273.699,208.813,284.383,214.709z M235.326,182.466  c-5.702-8.101-39.601-18.723-59.271-15.354c-14.615,2.503-11.145,15.241-2.963,36.849c7.677,20.278,44.14,16.643,54.825,10.747  S241.028,190.567,235.326,182.466z M379.537,141.083c-9.545-1.584-10.243,6.164-10.858,10.775  c-0.616,4.611-41.659-16.298-46.146-45.796c0,0-13.93,31.411-105.864,43.103c-6.41,1.401,33.325-9.766,46.146-29.633  c-75.626,38.556-127.325,33.047-127.58,32.327C122.836,102.366,128.677,1,260.101,1C287.02,1,391.571,2.135,379.537,141.083z" fill-rule="evenodd" style="fill:black;"/></svg>
