<svg id="Layer_1" data-name="Layer 1" xmlns="http://www.w3.org/2000/svg" viewBox="0 0 70.18 56.14"><defs><style>.cls-1{fill:#fff;}</style></defs><path class="cls-1" d="M53,12.74l2.33-2.52h0l3.24-3.5c.47-.5.58-.71.25-1.23a14.31,14.31,0,0,0-1.6-2.09,12.93,12.93,0,0,0-1.94-1.72c-.48-.36-.67-.24-1.14.27L50.87,5.44l-6.76,7.3H17v-.17c0-4.17-3-6.4-6.74-6.4a6.84,6.84,0,0,0-6.75,7.16V44.47A7.74,7.74,0,0,0,11,52H63.12V12.74Zm.12-8.87,3.67,4-1,1.09L52.07,5Zm-5.43,7.76,1.43-1.54a1.14,1.14,0,0,1,1.7,0,1.38,1.38,0,0,1,0,1.84l-.74.81H47.34A1.35,1.35,0,0,1,47.66,11.63ZM33.29,27v-.31a12.34,12.34,0,0,1,1.25,1.15h0l-4,4.35a4.11,4.11,0,0,0-.29-.3L32.32,27Zm0-2.59V18.6h5.38ZM4.74,13.33A5.58,5.58,0,0,1,10.3,7.5c3.06,0,5.54,1.64,5.55,5.07V39.29A6.53,6.53,0,0,0,10.3,36a6.53,6.53,0,0,0-5.56,3.32ZM61.92,50.68H11a6.49,6.49,0,0,1-6.24-6.21v-1.9a5.87,5.87,0,0,1,5.56-5.4,5,5,0,0,1,2.14.48V48.44l.68-.1c2.52-.4,3.92-3,3.92-5.63V14.07H42.87l-2.79,3H18.77V46.86H33.29V36.16H28.57v1.52h3.2v7.66H20.29V38h2.92V36.43H20.29V27h2.92V25.47H20.29V18.6H31.77v6.87H28.63V27h3.1l-3.1,7.21,8.25-4.11,6.17-6.66V27h4.66V25.47H44.57V21.8l3-3.2h8.52v6.87H53.13V27h2.92v9.44H53.13V38h2.92v7.39H44.57V37.68h3.2V36.16H43.05v10.7H57.57V17.08H48.94l2.79-3H61.92Z"/></svg>