<?xml version="1.0" encoding="utf-8"?>
<!-- Generator: Adobe Illustrator 24.1.2, SVG Export Plug-In . SVG Version: 6.00 Build 0)  -->
<svg version="1.1" id="Layer_1" xmlns="http://www.w3.org/2000/svg" xmlns:xlink="http://www.w3.org/1999/xlink" x="0px" y="0px"
	 viewBox="0 0 217.5744 103.7315" style="enable-background:new 0 0 217.5744 103.7315;" xml:space="preserve">
<g>
	<g>
		<rect style="fill:#00303C;" width="99.999" height="70.946"/>
		<g>
			<polygon style="fill:#FFFFFF;" points="86.7937,70.9695 84.8858,70.9695 84.8858,37.2763 79.8793,30.4671 74.8725,37.2763
				74.8725,70.9695 72.9646,70.9695 72.9646,36.6502 79.8793,27.2475 86.7937,36.6502 			"/>
			<polygon style="fill:#FFFFFF;" points="13.0682,45.4186 16.444,45.4186 16.444,44.153 9.95,44.153 9.95,48.7985 13.0682,48.7985
							"/>
			<polygon style="fill:#FFFFFF;" points="22.0182,45.4186 25.394,45.4186 25.394,44.153 18.9,44.153 18.9,48.7985 22.0182,48.7985
							"/>
			<polygon style="fill:#FFFFFF;" points="30.9682,45.4186 34.344,45.4186 34.344,44.153 27.85,44.153 27.85,48.7985
				30.9682,48.7985 			"/>
			<polygon style="fill:#FFFFFF;" points="39.9182,45.4186 43.294,45.4186 43.294,44.153 36.8,44.153 36.8,48.7985 39.9182,48.7985
							"/>
			<polygon style="fill:#FFFFFF;" points="48.8682,45.4186 52.244,45.4186 52.244,44.153 45.7499,44.153 45.7499,48.7985
				48.8682,48.7985 			"/>
			<polygon style="fill:#FFFFFF;" points="57.8181,45.4186 61.194,45.4186 61.194,44.153 54.6999,44.153 54.6999,48.7985
				57.8181,48.7985 			"/>
			<polygon style="fill:#FFFFFF;" points="34.6818,16.8965 33.8341,16.4091 32.9691,16.9065 25.8979,20.7333 25.8978,23.3712
				33.8347,19.0752 41.7703,23.3712 41.7703,20.7333 			"/>
			<path style="fill:#FFFFFF;" d="M62.03,36.8137c-7.8223-7.5381-18.0932-11.6843-28.9768-11.6843
				c-8.5438,0-16.758,2.5606-23.7547,7.4056l-1.0353,0.7202v2.8325l2.3558-1.6456c6.6071-4.5754,14.3649-6.9933,22.4342-6.9933
				c10.4305,0,20.2643,4.0307,27.6891,11.3502c0.2174,0.214,0.5096,0.3341,0.8143,0.3341h4.1111v29.7302v0.9465v1.1597h2.3194
				v-1.1597v-0.9465V36.8137H62.03z"/>
			<g>
				<rect x="77.1727" y="40.8837" style="fill:#FFFFFF;" width="2.0767" height="7.9147"/>
				<rect x="80.7112" y="40.8837" style="fill:#FFFFFF;" width="2.0767" height="7.9147"/>
			</g>
		</g>
	</g>
	<g>
		<path style="fill:#00303C;" d="M9.6095,83.6133c1.584,0,3.2261,0,4.6045,0.8799c1.6133,1.0264,2.4634,2.4922,2.4634,4.3984
			c0,2.2881-1.5249,3.8125-3.6362,4.3408v0.0586c2.4927,0.498,4.1934,2.4043,4.1934,5.0146c0,1.7598-1.0557,3.3145-2.4634,4.3408
			c-1.4663,1.085-3.4312,1.085-5.1616,1.085H0.6061V83.6133H9.6095z M5.2985,91.5899h3.1968c0.8213,0,1.7891,0.0586,2.4927-0.4688
			c0.5571-0.4111,0.8506-1.1445,0.8506-1.8184c0-0.7334-0.3521-1.4375-0.9971-1.8184c-0.6748-0.3818-1.9063-0.2939-2.6982-0.2939
			H5.2985V91.5899z M5.2985,100.0069h3.2554c0.8506,0,1.9355,0.0586,2.6689-0.4395c0.6743-0.4404,1.0557-1.2617,1.0557-2.083
			c0-0.7617-0.4692-1.5537-1.1436-1.9355c-0.6748-0.3809-1.6133-0.3809-2.376-0.3809H5.2985V100.0069z"/>
		<path style="fill:#00303C;" d="M26.0363,87.5137v4.0762h7.625v3.7832h-7.625v4.458h9.6777v3.9004H21.3439V83.6133H35.714v3.9004
			H26.0363z"/>
		<path style="fill:#00303C;" d="M44.6037,103.7315h-4.6924V83.6133h8.4756c1.7891,0,3.6074,0.0293,5.1616,1.0264
			c1.6426,1.085,2.5518,3.0498,2.5518,5.0146c0,2.2871-1.3198,4.3994-3.4902,5.1914l3.7246,8.8857h-5.2202l-3.0796-7.9473h-3.4312
			V103.7315z M44.6037,92.3233h2.5811c0.9678,0,2.0234,0.0879,2.874-0.4111c0.7622-0.4688,1.1729-1.4072,1.1729-2.2871
			c0-0.792-0.4692-1.6426-1.1436-2.0527c-0.792-0.499-2.1411-0.3818-3.021-0.3818h-2.4634V92.3233z"/>
		<path style="fill:#00303C;" d="M65.3122,93.086l6.3052-9.4727h4.5166l-4.8389,7.1846l6.041,12.9336h-5.1909l-3.9883-8.71
			l-2.8447,4.0762v4.6338H60.737V83.6133h4.5752V93.086z"/>
		<path style="fill:#00303C;" d="M85.5807,87.5137v4.0762h7.625v3.7832h-7.625v4.458h9.6782v3.9004H80.8883V83.6133h14.3706v3.9004
			H85.5807z"/>
		<path style="fill:#00303C;" d="M112.0373,99.7432v3.9883H99.2506V83.6133h4.6924v16.1299H112.0373z"/>
		<path style="fill:#00303C;" d="M120.193,87.5137v4.0762h7.625v3.7832h-7.625v4.458h9.6782v3.9004h-14.3706V83.6133h14.3706v3.9004
			H120.193z"/>
		<path style="fill:#00303C;" d="M143.3351,95.2559v8.4756h-4.6924v-8.4756l-6.3643-11.6426h5.4551l3.8711,7.6543l3.8125-7.6543
			h4.2231L143.3351,95.2559z"/>
		<path style="fill:#00303C;" d="M175.9811,99.7432v3.9883h-12.7866V83.6133h4.6924v16.1299H175.9811z"/>
		<path style="fill:#00303C;" d="M197.1876,103.7315h-5.0737l-1.2314-4.1348h-6.5107l-1.2612,4.1348h-4.1353l6.4521-20.1182h5.4551
			L197.1876,103.7315z M189.797,95.9014l-2.1406-7.0684l-2.1411,7.0684H189.797z"/>
		<path style="fill:#00303C;" d="M209.9489,83.6133c1.584,0,3.2261,0,4.6045,0.8799c1.6128,1.0264,2.4634,2.4922,2.4634,4.3984
			c0,2.2881-1.5249,3.8125-3.6362,4.3408v0.0586c2.4927,0.498,4.1938,2.4043,4.1938,5.0146c0,1.7598-1.0562,3.3145-2.4639,4.3408
			c-1.4663,1.085-3.4312,1.085-5.1616,1.085h-9.0034V83.6133H209.9489z M205.6378,91.5899h3.1968
			c0.8213,0,1.7891,0.0586,2.4927-0.4688c0.5571-0.4111,0.8506-1.1445,0.8506-1.8184c0-0.7334-0.3521-1.4375-0.9971-1.8184
			c-0.6748-0.3818-1.9063-0.2939-2.6982-0.2939h-2.8447V91.5899z M205.6378,100.0069h3.2554c0.8506,0,1.9355,0.0586,2.6689-0.4395
			c0.6743-0.4404,1.0557-1.2617,1.0557-2.083c0-0.7617-0.4692-1.5537-1.144-1.9355c-0.6743-0.3809-1.6128-0.3809-2.3755-0.3809
			h-3.4604V100.0069z"/>
	</g>
</g>
<g>
</g>
<g>
</g>
<g>
</g>
<g>
</g>
<g>
</g>
<g>
</g>
<g>
</g>
<g>
</g>
<g>
</g>
<g>
</g>
<g>
</g>
<g>
</g>
<g>
</g>
<g>
</g>
<g>
</g>
</svg>
