<svg xmlns="http://www.w3.org/2000/svg" viewBox="0 0 112.02 54.39"><path d="M10.691 43.149H.091V26.157l5.346-3.819 5.251 3.819.003 16.992zm11.552-19.952l-10.6-7.176v27.128h10.6V23.197zm1.002-13.177h12.79v33.13h-12.79z" fill="#6e8591"/><path fill="#6e8591" d="M25.925 7.54h7.45v4.77h-7.45z"/><path fill="#6e8591" d="M27.685 5.06h3.91v4.68h-3.91z"/><path fill="#6e8591" d="M28.935 0h1.41v6.87h-1.41z"/><path d="M36.679 40.698c-.263 0-.53-.008-.793-.025l.125-3.785a8.579 8.579 0 0 0 7.4-3.214l2.956 2.364a12.346 12.346 0 0 1-9.688 4.66z" opacity=".62" fill="#6e8591"/><path d="M35.985 40.667a10.147 10.147 0 0 1-5.414-1.576l1.867-3.292a8.508 8.508 0 0 0 3.573 1.089l-.026 3.779z" fill="#fff"/><path d="M29.118 41.329l5.825-7.115-6.469.646.644 6.469zm-3.688-7.808a12.409 12.409 0 0 1 5.226-16.062l1.841 3.307a8.629 8.629 0 0 0-4.432 7.533 8.54 8.54 0 0 0 .8 3.626l-3.435 1.596z" fill="#fff"/><path d="M29.503 15.054l3.04 8.679 2.818-5.859-5.858-2.82z" fill="#fff"/><g opacity=".62" fill="#6e8591"><path d="M49.07 28.792l-3.783-.147c0-.115.007-.23.007-.346a8.622 8.622 0 0 0-7.532-8.547l.47-3.755A12.412 12.412 0 0 1 49.07 28.792z"/><path d="M51.729 29.067l-8.991-1.929 3.531 5.459 5.46-3.53z"/></g><path d="M52.806 13.051h3.428a3.585 3.585 0 0 1 2.566.855c.44.442.678 1.046.66 1.669v.042a2.3 2.3 0 0 1-1.333 2.145 2.336 2.336 0 0 1 1.752 2.342v.07c0 1.767-1.416 2.692-3.547 2.692h-3.527l.001-9.815zm4.648 2.889c0-.715-.5-1.094-1.374-1.094h-1.514v2.216h1.416c.9 0 1.472-.365 1.472-1.108v-.014zm-1.108 2.832h-1.781v2.3h1.823c.911 0 1.486-.393 1.486-1.15v-.014c.001-.701-.518-1.136-1.529-1.136h.001zm4.408.28v-6h2.106v6.015c0 1.388.683 2.075 1.772 2.075s1.772-.673 1.772-2.033v-6.057h2.091v5.959c0 2.706-1.54 4.01-3.892 4.01s-3.849-1.322-3.849-3.969zm9.019-6.001h2.033v9.815h-2.033v-9.815zm3.758 0h2.029v7.948h3.1v1.865h-5.132l.003-9.813zm5.678-.11h3.169a4.846 4.846 0 0 1 5.118 4.838v.126a4.857 4.857 0 0 1-5.118 4.85h-3.169v-9.814zm2.033 1.837v6.359h1.122c1.543 0 2.875-.956 3.029-3.246v-.07a2.948 2.948 0 0 0-3.029-3.043h-1.122zm7.344-1.782h2.033v9.815h-2.033v-9.815zm3.468.165h2.069l4.169 5.721v-5.721h2.208v9.815h-1.929l-4.309-5.931v5.931h-2.209l.001-9.815zm9.764 4.868v-.126a4.783 4.783 0 0 1 5.011-4.992 5.43 5.43 0 0 1 4.322 1.78l-1.428 1.482a3.544 3.544 0 0 0-2.925-1.369 2.822 2.822 0 0 0-2.7 3.085v.112c0 2.019 1.21 3.155 2.79 3.155a5.767 5.767 0 0 0 2.245-.407v-1.738h-2.6v-1.767h4.713v4.543a8.931 8.931 0 0 1-4.467 1.22 4.7 4.7 0 0 1-4.96-4.978z" fill="#004381"/><path d="M62.319 28.678a4.163 4.163 0 0 0-1.42-1.239 4.337 4.337 0 0 0-2.093-.469 4.489 4.489 0 0 0-1.275.192 3.71 3.71 0 0 0-1.179.589 3.032 3.032 0 0 0-.854 1 2.944 2.944 0 0 0-.325 1.42c-.018.469.09.934.312 1.347.21.354.492.661.828.9a4.79 4.79 0 0 0 1.176.613c.44.16.9.321 1.379.481.592.193 1.188.401 1.787.626.58.213 1.125.509 1.62.878.486.367.887.835 1.176 1.371.326.652.483 1.376.456 2.105a4.678 4.678 0 0 1-.486 2.2 4.613 4.613 0 0 1-1.263 1.527 5.25 5.25 0 0 1-1.775.89 7.2 7.2 0 0 1-2.009.289 7.726 7.726 0 0 1-1.54-.156 6.976 6.976 0 0 1-1.467-.469 5.971 5.971 0 0 1-1.3-.794c-.4-.32-.757-.692-1.059-1.107l1.492-1.107a4.561 4.561 0 0 0 1.552 1.528c.709.42 1.522.633 2.346.613a4.543 4.543 0 0 0 1.323-.2c.44-.132.852-.344 1.215-.626.362-.282.665-.634.89-1.034a3.21 3.21 0 0 0 0-2.911 3.1 3.1 0 0 0-.926-.986c-.41-.277-.855-.5-1.323-.661a58.983 58.983 0 0 0-1.564-.53 20.542 20.542 0 0 1-1.66-.6 5.602 5.602 0 0 1-1.467-.878 4.1 4.1 0 0 1-1.046-1.335 4.879 4.879 0 0 1 .1-4.066 4.46 4.46 0 0 1 1.287-1.468 5.4 5.4 0 0 1 1.756-.842 7.154 7.154 0 0 1 1.9-.264 6.558 6.558 0 0 1 2.959.613 5.08 5.08 0 0 1 1.852 1.455l-1.375 1.105zm9.838 14.29h-1.732v-7.337l-6.375-9.695h2.165l5.124 8.251 5.172-8.251h2.021l-6.375 9.695v7.337zm19.968-2.526h.048V25.936h1.734v17.032h-2.165l-9.91-14.65h-.049v14.65h-1.732V25.936h2.165l9.91 14.506zm19.895-.24c-.302.448-.653.86-1.047 1.228-.427.4-.904.742-1.419 1.019-.563.304-1.16.54-1.78.7a8.36 8.36 0 0 1-2.129.256 9.262 9.262 0 0 1-3.56-.673 8.315 8.315 0 0 1-4.655-4.691 9.466 9.466 0 0 1-.662-3.584 9.326 9.326 0 0 1 .674-3.584 8.454 8.454 0 0 1 4.68-4.691 9.113 9.113 0 0 1 3.523-.673c1.218 0 2.422.254 3.536.745a7.22 7.22 0 0 1 1.443.851 5 5 0 0 1 1.083 1.122l-1.443 1.058a4.334 4.334 0 0 0-.71-.818 4.838 4.838 0 0 0-1.046-.722 6.583 6.583 0 0 0-1.31-.505 5.828 5.828 0 0 0-1.528-.192 7.068 7.068 0 0 0-2.97.6 6.677 6.677 0 0 0-2.226 1.618 7.059 7.059 0 0 0-1.4 2.362 8.315 8.315 0 0 0-.48 2.829 8.148 8.148 0 0 0 .492 2.83c.314.87.791 1.672 1.407 2.362a6.675 6.675 0 0 0 2.225 1.618 6.999 6.999 0 0 0 2.947.6 6.668 6.668 0 0 0 2.79-.6 5.292 5.292 0 0 0 2.213-1.925l1.351.86z" fill="#0896d7"/><path fill="none" stroke="#6e8591" stroke-width="2" stroke-miterlimit="10" d="M.005 46.11h111.31"/><path d="M3.798 52.583a1.68 1.68 0 1 1-3.35 0v-2.748h.526v2.673c0 .715.264 1.393 1.15 1.393s1.147-.678 1.147-1.393v-2.673h.527v2.748zm1.782 1.356a.377.377 0 1 1-.753-.039.377.377 0 0 1 .753.039zm4.901-3.32a.923.923 0 0 0-.81-.408c-.464 0-.947.22-.947.746 0 .408.226.59.935.816.69.22 1.33.446 1.33 1.317s-.759 1.3-1.562 1.3a1.611 1.611 0 0 1-1.368-.615l.452-.37c.205.323.566.514.948.5.452 0 .966-.264.966-.772 0-.546-.37-.64-1.161-.9-.627-.207-1.1-.483-1.1-1.223a1.35 1.35 0 0 1 1.512-1.28c.472-.029.931.164 1.242.521l-.437.368zm2.078 3.32a.377.377 0 1 1-.753-.039.377.377 0 0 1 .753.039zm4.569-4.104h1.707a2.222 2.222 0 0 1 0 4.442h-1.707v-4.442zm.527 3.953h1a1.733 1.733 0 1 0 0-3.464h-1v3.464zm5.103-3.953h2.792v.489h-2.264v1.397H25.4v.489h-2.114v1.581h2.378v.489h-2.9l-.006-4.445zm4.619 0h1.318c.816 0 1.556.289 1.556 1.217 0 .972-.828 1.23-1.456 1.23h-.891v2h-.527v-4.447zm.527 1.957h.891c.527 0 .891-.238.891-.734s-.364-.734-.891-.734h-.891v1.468zm5.071-1.957h.5l1.889 4.442h-.615l-.452-1.092h-2.221l-.458 1.092h-.6l1.957-4.442zm.239.678h-.013l-.922 2.183h1.813l-.878-2.183zm3.633-.678h1.134c.86 0 1.769.125 1.769 1.224a1.16 1.16 0 0 1-1.11 1.173l1.261 2.046h-.646l-1.2-2h-.678v2h-.527l-.003-4.443zm.527 1.957h.471c.583 0 1.343 0 1.343-.734 0-.64-.559-.734-1.073-.734h-.74l-.001 1.468zm7.072-1.471h-1.468v3.953h-.527v-3.953h-1.468v-.489h3.463v.489zm1.518-.486h.784l1.506 3.482h.012l1.518-3.482h.765v4.442h-.527V50.55h-.013l-1.594 3.727h-.32l-1.594-3.727h-.013v3.727h-.524v-4.442zm6.591 0h2.794v.489h-2.265v1.397h2.114v.489h-2.114v1.581h2.378v.489h-2.905l-.002-4.445zm4.619 0h.665l2.572 3.689h.013v-3.689h.527v4.442h-.665l-2.572-3.689h-.013v3.689h-.527v-4.442zm8.76.486h-1.471v3.953h-.527v-3.953h-1.468v-.489h3.464l.002.489zm3.522 1.735a2.321 2.321 0 1 1 2.321 2.334 2.255 2.255 0 0 1-2.321-2.334zm4.078 0a1.759 1.759 0 1 0-3.514.17 1.759 1.759 0 0 0 3.514-.17zm2.311-2.221h2.754v.489h-2.227v1.468h2.071v.489h-2.071v2h-.527v-4.446zm7.236 0h2.792v.489h-2.265v1.397h2.114v.489h-2.114v1.581h2.378v.489h-2.9l-.005-4.445zm4.45 0h.665l2.572 3.689h.012v-3.689h.527v4.442h-.665l-2.572-3.689h-.012v3.689h-.527v-4.442zm5.61 0h2.792v.489h-2.265v1.397h2.114v.489h-2.114v1.581h2.378v.489h-2.9l-.005-4.445zm4.456 0h1.136c.86 0 1.769.125 1.769 1.224a1.16 1.16 0 0 1-1.11 1.173l1.261 2.046h-.646l-1.2-2h-.678v2h-.527l-.005-4.443zm.527 1.957h.471c.583 0 1.343 0 1.343-.734 0-.64-.559-.734-1.073-.734h-.74l-.001 1.468zm7.819 2.184c-.51.277-1.083.42-1.663.414a2.25 2.25 0 0 1-2.372-2.334 2.29 2.29 0 0 1 2.39-2.334 2.13 2.13 0 0 1 1.569.583l-.4.414a1.668 1.668 0 0 0-1.211-.508 1.845 1.845 0 0 0 .05 3.689 2.613 2.613 0 0 0 1.1-.257v-1.362h-1.023v-.489h1.55l.01 2.184zm2.887-1.613l-1.656-2.528h.671l1.248 2.008 1.286-2.008h.634l-1.656 2.528v1.914h-.527v-1.914z" fill="#6e8591"/></svg>