<?xml version="1.0" encoding="UTF-8" standalone="no"?>
<svg
   xmlns:dc="http://purl.org/dc/elements/1.1/"
   xmlns:cc="http://creativecommons.org/ns#"
   xmlns:rdf="http://www.w3.org/1999/02/22-rdf-syntax-ns#"
   xmlns:svg="http://www.w3.org/2000/svg"
   xmlns="http://www.w3.org/2000/svg"
   xmlns:sodipodi="http://sodipodi.sourceforge.net/DTD/sodipodi-0.dtd"
   xmlns:inkscape="http://www.inkscape.org/namespaces/inkscape"
   width="29.614542mm"
   height="11.484359mm"
   viewBox="0 0 29.614542 11.484359"
   version="1.1"
   id="svg109"
   inkscape:version="1.0.2 (e86c8708, 2021-01-15)"
   sodipodi:docname="buildingsync-logo-sm.svg">
  <defs
     id="defs103" />
  <sodipodi:namedview
     id="base"
     pagecolor="#ffffff"
     bordercolor="#666666"
     borderopacity="1.0"
     inkscape:pageopacity="0.0"
     inkscape:pageshadow="2"
     inkscape:zoom="0.35"
     inkscape:cx="370.25021"
     inkscape:cy="527.41702"
     inkscape:document-units="mm"
     inkscape:current-layer="layer1"
     inkscape:document-rotation="0"
     showgrid="false"
     inkscape:window-width="1252"
     inkscape:window-height="1174"
     inkscape:window-x="0"
     inkscape:window-y="23"
     inkscape:window-maximized="0" />
  <metadata
     id="metadata106">
    <rdf:RDF>
      <cc:Work
         rdf:about="">
        <dc:format>image/svg+xml</dc:format>
        <dc:type
           rdf:resource="http://purl.org/dc/dcmitype/StillImage" />
        <dc:title></dc:title>
      </cc:Work>
    </rdf:RDF>
  </metadata>
  <g
     inkscape:label="Layer 1"
     inkscape:groupmode="layer"
     id="layer1"
     transform="translate(-7.8712975,-8.6209144)">
    <path
       d="M 10.67588,20.03742 H 7.8712975 v -4.4958 l 1.414463,-1.010444 1.3893265,1.010444 z m 3.056467,-5.278966 -2.804583,-1.89865 v 7.177616 h 2.804583 z m 0.265113,-3.486415 h 3.38402 v 8.765646 h -3.38402 z"
       fill="#6e8591"
       id="path10"
       style="stroke-width:0.264583" />
    <path
       fill="#6e8591"
       d="m 14.706543,10.615872 h 1.971146 v 1.262063 h -1.971146 z"
       id="path12"
       style="stroke-width:0.264583" />
    <path
       fill="#6e8591"
       d="M 15.172209,9.9597064 H 16.20673 V 11.197956 H 15.172209 Z"
       id="path14"
       style="stroke-width:0.264583" />
    <path
       fill="#6e8591"
       d="m 15.502939,8.6209144 h 0.373062 v 1.8176866 h -0.373062 z"
       id="path16"
       style="stroke-width:0.264583" />
    <path
       d="m 17.551872,19.388926 c -0.06959,0 -0.140229,-0.0021 -0.209815,-0.0066 l 0.03307,-1.001448 a 2.2698604,2.2698604 0 0 0 1.957923,-0.850371 l 0.78211,0.625475 a 3.2665458,3.2665458 0 0 1 -2.563291,1.232958 z"
       opacity="0.62"
       fill="#6e8591"
       id="path18"
       style="stroke-width:0.264583" />
    <path
       d="m 17.368251,19.380724 a 2.684727,2.684727 0 0 1 -1.432454,-0.416983 l 0.493977,-0.871008 a 2.251075,2.251075 0 0 0 0.945356,0.288131 z"
       fill="#ffffff"
       id="path20"
       style="stroke-width:0.264583" />
    <path
       d="m 15.551357,19.555878 1.541198,-1.88251 -1.711589,0.170921 z m -0.975783,-2.065866 a 3.2832145,3.2832145 0 0 1 1.382713,-4.249738 l 0.487097,0.874977 a 2.2830896,2.2830896 0 0 0 -1.172633,1.993107 2.2595416,2.2595416 0 0 0 0.211667,0.959379 z"
       fill="#ffffff"
       id="path22"
       style="stroke-width:0.264583" />
    <path
       d="m 15.653222,12.603951 0.804333,2.296319 0.745596,-1.550194 z"
       fill="#ffffff"
       id="path24"
       style="stroke-width:0.264583" />
    <g
       opacity="0.62"
       fill="#6e8591"
       id="g30"
       transform="matrix(0.26458333,0,0,0.26458333,7.8472205,8.6209144)">
      <path
         d="m 49.07,28.792 -3.783,-0.147 c 0,-0.115 0.007,-0.23 0.007,-0.346 a 8.622,8.622 0 0 0 -7.532,-8.547 l 0.47,-3.755 A 12.412,12.412 0 0 1 49.07,28.792 Z"
         id="path26" />
      <path
         d="m 51.729,29.067 -8.991,-1.929 3.531,5.459 z"
         id="path28" />
    </g>
    <path
       d="m 21.81881,12.073991 h 0.90699 a 0.94853124,0.94853124 0 0 1 0.67892,0.226219 c 0.11642,0.116946 0.17939,0.276754 0.17462,0.441589 v 0.01111 a 0.60854166,0.60854166 0 0 1 -0.35268,0.567531 0.61806666,0.61806666 0 0 1 0.46355,0.619654 v 0.01852 c 0,0.467519 -0.37465,0.712258 -0.93848,0.712258 h -0.93319 z m 1.22978,0.764381 c 0,-0.189177 -0.13229,-0.289454 -0.36354,-0.289454 h -0.40058 v 0.586317 h 0.37465 c 0.23813,0 0.38947,-0.09657 0.38947,-0.293159 z m -0.29316,0.7493 h -0.47122 v 0.608542 h 0.48233 c 0.24104,0 0.39318,-0.103981 0.39318,-0.304271 v -0.0037 c 2.6e-4,-0.185473 -0.13706,-0.300567 -0.40455,-0.300567 z m 1.16629,0.07408 v -1.5875 h 0.55721 v 1.591468 c 0,0.367242 0.18071,0.549011 0.46884,0.549011 0.28813,0 0.46884,-0.178065 0.46884,-0.537898 v -1.602581 h 0.55325 v 1.576652 c 0,0.715962 -0.40746,1.060979 -1.02976,1.060979 -0.6223,0 -1.01838,-0.349779 -1.01838,-1.050131 z m 2.38627,-1.587765 h 0.5379 v 2.596885 h -0.5379 z m 0.99431,0 h 0.53684 v 2.102908 h 0.8202 v 0.493448 H 27.3015 Z m 1.5023,-0.0291 h 0.83847 a 1.2821708,1.2821708 0 0 1 1.35413,1.280054 v 0.03334 A 1.2850812,1.2850812 0 0 1 29.64307,14.64151 H 28.8046 Z m 0.5379,0.486039 v 1.682486 h 0.29686 c 0.40825,0 0.76068,-0.252942 0.80142,-0.858838 v -0.01852 a 0.77999166,0.77999166 0 0 0 -0.80142,-0.805128 z m 1.9431,-0.471487 h 0.5379 v 2.596885 h -0.5379 z m 0.91757,0.04366 h 0.54743 l 1.10304,1.513681 v -1.513681 h 0.5842 v 2.596886 h -0.51038 l -1.14009,-1.569244 v 1.569244 h -0.58446 z m 2.5834,1.287992 v -0.03334 a 1.2655021,1.2655021 0 0 1 1.32582,-1.3208 1.4366875,1.4366875 0 0 1 1.14353,0.470959 l -0.37782,0.392112 a 0.93768332,0.93768332 0 0 0 -0.77391,-0.362214 0.74665416,0.74665416 0 0 0 -0.71437,0.816239 v 0.02963 c 0,0.534193 0.32014,0.83476 0.73818,0.83476 a 1.5258521,1.5258521 0 0 0 0.59399,-0.107685 v -0.459846 h -0.68791 v -0.467519 h 1.24698 v 1.202002 a 2.3629937,2.3629937 0 0 1 -1.1819,0.322792 1.2435417,1.2435417 0 0 1 -1.31233,-1.317096 z"
       fill="#004381"
       id="path32"
       style="stroke-width:0.264583" />
    <path
       d="m 24.33579,16.208635 a 1.1014604,1.1014604 0 0 0 -0.37571,-0.327819 1.1474979,1.1474979 0 0 0 -0.55377,-0.12409 1.1877146,1.1877146 0 0 0 -0.33735,0.0508 0.98160415,0.98160415 0 0 0 -0.31194,0.15584 0.80221666,0.80221666 0 0 0 -0.22595,0.264583 0.77893332,0.77893332 0 0 0 -0.086,0.375709 c -0.005,0.124089 0.0238,0.24712 0.0825,0.356393 0.0556,0.09366 0.13017,0.17489 0.21907,0.238125 a 1.2673542,1.2673542 0 0 0 0.31115,0.16219 c 0.11642,0.04233 0.23813,0.08493 0.36486,0.127265 0.15663,0.05106 0.31433,0.106097 0.47281,0.165629 0.15346,0.05636 0.29766,0.134673 0.42863,0.232304 0.12858,0.0971 0.23468,0.220927 0.31115,0.362744 0.0863,0.172508 0.12779,0.364066 0.12065,0.556948 a 1.2377208,1.2377208 0 0 1 -0.12859,0.582083 1.2205229,1.2205229 0 0 1 -0.33417,0.404019 1.3890625,1.3890625 0 0 1 -0.46963,0.235479 1.905,1.905 0 0 1 -0.53155,0.07646 2.0441708,2.0441708 0 0 1 -0.40746,-0.04127 1.8457333,1.8457333 0 0 1 -0.38814,-0.124089 1.5798271,1.5798271 0 0 1 -0.34396,-0.210079 c -0.10584,-0.08467 -0.20029,-0.183092 -0.2802,-0.292894 l 0.39476,-0.292894 a 1.2067646,1.2067646 0 0 0 0.41063,0.404283 c 0.18759,0.111125 0.4027,0.167482 0.62072,0.16219 a 1.2020021,1.2020021 0 0 0 0.35004,-0.05292 c 0.11642,-0.03493 0.22543,-0.09102 0.32147,-0.165629 0.0958,-0.07461 0.17595,-0.167746 0.23548,-0.273579 a 0.84931249,0.84931249 0 0 0 0,-0.770202 0.82020832,0.82020832 0 0 0 -0.24501,-0.260879 c -0.10847,-0.07329 -0.22621,-0.132292 -0.35004,-0.17489 a 15.605919,15.605919 0 0 0 -0.41381,-0.140229 5.4350708,5.4350708 0 0 1 -0.43921,-0.15875 1.4821958,1.4821958 0 0 1 -0.38814,-0.232304 1.0847917,1.0847917 0 0 1 -0.27675,-0.353219 1.2909021,1.2909021 0 0 1 0.0264,-1.075796 1.1800417,1.1800417 0 0 1 0.34052,-0.388408 1.42875,1.42875 0 0 1 0.46461,-0.222779 1.8928291,1.8928291 0 0 1 0.50271,-0.06985 1.7351375,1.7351375 0 0 1 0.7829,0.162189 1.3440833,1.3440833 0 0 1 0.49001,0.384969 z m 2.60297,3.780896 H 26.4805 v -1.941248 l -1.68672,-2.565136 h 0.57283 l 1.35572,2.183077 1.36843,-2.183077 h 0.53472 l -1.68672,2.565136 z m 5.2832,-0.668338 h 0.0127 v -3.838046 h 0.45879 v 4.506384 H 32.12062 L 29.4986,16.113385 h -0.013 v 3.876146 h -0.45826 v -4.506384 h 0.57282 l 2.62202,3.838046 z m 5.26388,-0.0635 c -0.0799,0.118533 -0.17277,0.227542 -0.27701,0.324908 -0.11298,0.105834 -0.23919,0.196321 -0.37545,0.269611 -0.14896,0.08043 -0.30691,0.142875 -0.47096,0.185208 a 2.2119166,2.2119166 0 0 1 -0.56329,0.06773 2.4505708,2.4505708 0 0 1 -0.94192,-0.178064 2.2000104,2.2000104 0 0 1 -1.23164,-1.241161 2.5045458,2.5045458 0 0 1 -0.17515,-0.948266 2.4675041,2.4675041 0 0 1 0.17833,-0.948267 2.2367875,2.2367875 0 0 1 1.23825,-1.24116 2.4111479,2.4111479 0 0 1 0.93213,-0.178065 c 0.32226,0 0.64082,0.0672 0.93556,0.197115 a 1.9102916,1.9102916 0 0 1 0.3818,0.22516 1.3229166,1.3229166 0 0 1 0.28654,0.296863 l -0.38179,0.279929 a 1.1467042,1.1467042 0 0 0 -0.18786,-0.216429 1.2800542,1.2800542 0 0 0 -0.27675,-0.19103 1.7417521,1.7417521 0 0 0 -0.34661,-0.133614 1.5419916,1.5419916 0 0 0 -0.40428,-0.0508 1.870075,1.870075 0 0 0 -0.78581,0.15875 1.7666229,1.7666229 0 0 0 -0.58896,0.428096 1.8676937,1.8676937 0 0 0 -0.37042,0.624946 2.2000104,2.2000104 0 0 0 -0.127,0.748506 2.155825,2.155825 0 0 0 0.13017,0.748771 c 0.0831,0.230187 0.20929,0.442383 0.37227,0.624945 a 1.7660937,1.7660937 0 0 0 0.5887,0.428096 1.8518187,1.8518187 0 0 0 0.77973,0.15875 1.7642416,1.7642416 0 0 0 0.73819,-0.15875 1.400175,1.400175 0 0 0 0.58552,-0.509323 l 0.35745,0.227542 z"
       fill="#0896d7"
       id="path34"
       style="stroke-width:0.264583" />
  </g>
</svg>
