<svg id="Layer_1" data-name="Layer 1" xmlns="http://www.w3.org/2000/svg" height="63.6" width="164"><defs><style>.cls-1{fill:#fff;}.cls-2{fill:#bbbdbf;stroke:#3face1;stroke-miterlimit:10;stroke-width:5.55px;opacity:0.62;}</style></defs><polygon class="cls-1" points="15.53 63.23 0 63.23 0 38.33 7.83 32.73 15.53 38.33 15.53 63.23"/><polygon class="cls-1" points="32.45 33.99 16.93 23.48 16.93 63.23 32.45 63.23 32.45 33.99"/><path class="cls-2" d="M80.48,67.37" transform="translate(-14.61 -16.6)"/><path class="cls-2" d="M82.17,64.57" transform="translate(-14.61 -16.6)"/><path class="cls-1" d="M68.21,76.23l-1.16,0,.18-5.55c.27,0,.71,0,1,0a12.57,12.57,0,0,0,9.87-4.75l4.33,3.46A18.1,18.1,0,0,1,68.21,76.23Z" transform="translate(-14.61 -16.6)"/><path class="cls-1" d="M63.36,31.28V27.65H60.77V24H58.94V16.6H56.87V24H55v3.64H52.45v3.63H48.53V79.82H67.28V31.28ZM50,58.06A18.19,18.19,0,0,1,59,42.4L57.7,38.66l8.58,4.13-4.13,8.58L60.9,47.78a12.63,12.63,0,0,0-5.31,10.28,12.47,12.47,0,0,0,1.17,5.32l-5,2.33A18,18,0,0,1,50,58.06ZM67.2,76.19a14.59,14.59,0,0,1-7.55-2.1l-2.52,3.07-.94-9.48,9.48-.94-2.41,2.94a12.56,12.56,0,0,0,4,1Z" transform="translate(-14.61 -16.6)"/><path class="cls-2" d="M67,42.72" transform="translate(-14.61 -16.6)"/><path class="cls-1" d="M86.38,58.35v-.29A18.18,18.18,0,0,0,70.49,40l-.69,5.5a12.64,12.64,0,0,1,11,11.62l-3.71-.8,5.18,8,8-5.17Z" transform="translate(-14.61 -16.6)"/><path class="cls-1" d="M91.84,35.72h5A5.22,5.22,0,0,1,100.63,37a3.32,3.32,0,0,1,1,2.44v.06a3.37,3.37,0,0,1-2,3.15,3.42,3.42,0,0,1,2.57,3.43v.1c0,2.59-2.08,3.94-5.2,3.94H91.84ZM98.66,40c0-1-.74-1.6-2-1.6H94.42V41.6H96.5c1.31,0,2.16-.54,2.16-1.63ZM97,44.1H94.42v3.37h2.67c1.34,0,2.18-.57,2.18-1.68v0C99.27,44.74,98.51,44.1,97,44.1Z" transform="translate(-14.61 -16.6)"/><path class="cls-1" d="M103.49,44.52v-8.8h3.09v8.82c0,2,1,3,2.59,3s2.6-1,2.6-3V35.72h3.06v8.73c0,4-2.25,5.88-5.7,5.88S103.49,48.4,103.49,44.52Z" transform="translate(-14.61 -16.6)"/><path class="cls-1" d="M116.71,35.72h3V50.1h-3Z" transform="translate(-14.61 -16.6)"/><path class="cls-1" d="M122.21,35.72h3V47.37h4.54V50.1h-7.52Z" transform="translate(-14.61 -16.6)"/><path class="cls-1" d="M130.53,35.56h4.65c4.17,0,7.5,2.88,7.5,7.09v.18c0,4.22-3.33,7.11-7.5,7.11h-4.65Zm3,2.69v9.32h1.65c2.26,0,4.21-1.4,4.43-4.76v-.1a4.32,4.32,0,0,0-4.43-4.46Z" transform="translate(-14.61 -16.6)"/><path class="cls-1" d="M144.27,35.64h3V50h-3Z" transform="translate(-14.61 -16.6)"/><path class="cls-1" d="M149.35,35.88h3l6.1,8.39V35.88h3.24V50.27H158.9l-6.31-8.7v8.7h-3.24Z" transform="translate(-14.61 -16.6)"/><path class="cls-1" d="M163.66,43v-.19A7,7,0,0,1,171,35.52c4.17.11,4.9,1.5,6.34,2.6l-2.09,2.18a5.22,5.22,0,0,0-4.29-2c-2.25,0-4,1.87-4,4.52V43c0,3,1.77,4.63,4.08,4.63a8.53,8.53,0,0,0,3.3-.6V44.45h-3.81V41.87h6.9v6.65a13,13,0,0,1-6.54,1.79A6.89,6.89,0,0,1,163.66,43Z" transform="translate(-14.61 -16.6)"/><path class="cls-1" d="M105.78,58.62a6.11,6.11,0,0,0-2.08-1.82,6.89,6.89,0,0,0-4.93-.4,5.61,5.61,0,0,0-1.73.86,4.45,4.45,0,0,0-1.25,1.47,4.26,4.26,0,0,0-.48,2.08,3.8,3.8,0,0,0,.46,2A4.23,4.23,0,0,0,97,64.1a6.75,6.75,0,0,0,1.73.9c.64.24,1.31.47,2,.71s1.74.58,2.62.91a9.49,9.49,0,0,1,2.37,1.29,6.22,6.22,0,0,1,1.72,2,6.3,6.3,0,0,1,.67,3.08,6.93,6.93,0,0,1-.71,3.23,7,7,0,0,1-1.85,2.24,7.8,7.8,0,0,1-2.61,1.3,10.55,10.55,0,0,1-2.94.42A10.74,10.74,0,0,1,97.75,80a10.17,10.17,0,0,1-2.15-.68,8.9,8.9,0,0,1-1.91-1.17,8.5,8.5,0,0,1-1.55-1.62l2.19-1.62a6.67,6.67,0,0,0,2.27,2.24A6.42,6.42,0,0,0,100,78a6.69,6.69,0,0,0,1.94-.3,5.58,5.58,0,0,0,1.78-.92,5.13,5.13,0,0,0,1.3-1.51,4.72,4.72,0,0,0,0-4.27,4.35,4.35,0,0,0-1.36-1.44,7.82,7.82,0,0,0-1.94-1c-.73-.26-1.49-.52-2.29-.78s-1.63-.55-2.43-.88a8.14,8.14,0,0,1-2.15-1.29,6,6,0,0,1-1.53-2,7.18,7.18,0,0,1,.14-6,6.52,6.52,0,0,1,1.88-2.15A7.9,7.9,0,0,1,98,54.35a10.76,10.76,0,0,1,2.78-.38,9.63,9.63,0,0,1,4.34.9A7.43,7.43,0,0,1,107.79,57Z" transform="translate(-14.61 -16.6)"/><path class="cls-1" d="M120.2,79.56h-2.54V68.81L108.32,54.6h3.17L119,66.69l7.58-12.09h3L120.2,68.81Z" transform="translate(-14.61 -16.6)"/><path class="cls-1" d="M149.46,75.86h.07V54.6h2.54v25h-3.18L134.37,58.09h-.07V79.56h-2.54v-25h3.17Z" transform="translate(-14.61 -16.6)"/><path class="cls-1" d="M178.61,75.5a10.29,10.29,0,0,1-1.53,1.8A10.05,10.05,0,0,1,175,78.8a11.62,11.62,0,0,1-2.61,1,12.25,12.25,0,0,1-3.12.37,13.74,13.74,0,0,1-5.22-1,12.26,12.26,0,0,1-6.82-6.88,13.82,13.82,0,0,1-1-5.25,13.64,13.64,0,0,1,1-5.25A12.44,12.44,0,0,1,164.1,55a13.52,13.52,0,0,1,5.17-1,12.73,12.73,0,0,1,2.69.28,12.31,12.31,0,0,1,2.49.81,10.22,10.22,0,0,1,2.11,1.25A7,7,0,0,1,178.15,58L176,59.5a6.55,6.55,0,0,0-1-1.2,7,7,0,0,0-1.54-1,9.35,9.35,0,0,0-1.92-.75,8.86,8.86,0,0,0-2.24-.28,10.43,10.43,0,0,0-4.35.88,9.9,9.9,0,0,0-3.26,2.37,10.48,10.48,0,0,0-2.05,3.46,12.26,12.26,0,0,0-.7,4.15,12,12,0,0,0,.72,4.15,10.67,10.67,0,0,0,2.06,3.46A9.94,9.94,0,0,0,165,77.06a10.31,10.31,0,0,0,4.31.88,9.86,9.86,0,0,0,4.09-.88,7.82,7.82,0,0,0,3.25-2.82Z" transform="translate(-14.61 -16.6)"/></svg>
