<svg id="Layer_1" data-name="Layer 1" xmlns="http://www.w3.org/2000/svg" viewBox="0 0 179.65 74.39"><defs><style>.cls-1{fill:#8295a1;}.cls-2{fill:#3ba6dd;}.cls-3{fill:#005191;}</style></defs><polygon class="cls-1" points="18.77 69.41 2.33 69.41 2.33 43.05 10.63 37.13 18.77 43.05 18.77 69.41"/><polygon class="cls-1" points="36.68 38.46 20.25 27.33 20.25 69.41 36.68 69.41 36.68 38.46"/><path class="cls-2" d="M59.07,65.6c-.41,0-.82,0-1.23,0L58,59.69c.29,0,.75,0,1,0a13.31,13.31,0,0,0,10.44-5l4.58,3.67A19.14,19.14,0,0,1,59.07,65.6Z"/><path class="cls-1" d="M53.93,18V14.18H51.2V10.33h-2V2.49H47.07v7.84H45.13v3.85H42.39V18H38.24V69.41H58.08V18ZM39.84,46.37a19.24,19.24,0,0,1,9.49-16.58l-1.39-4L57,30.21l-4.38,9.08-1.33-3.8A13.37,13.37,0,0,0,47,52l-5.33,2.47A19.1,19.1,0,0,1,39.84,46.37ZM58,65.56a15.54,15.54,0,0,1-8-2.22l-2.66,3.25-1-10,10-1-2.55,3.12a13.12,13.12,0,0,0,4.2,1Z"/><path class="cls-2" d="M78.29,46.68c0-.1,0-.2,0-.31A19.25,19.25,0,0,0,61.48,27.29l-.73,5.83A13.36,13.36,0,0,1,72.39,45.41l-3.92-.84L73.94,53l8.47-5.48Z"/><path class="cls-3" d="M84.08,22.73H89.4a5.57,5.57,0,0,1,4,1.32,3.56,3.56,0,0,1,1,2.59v.07A3.54,3.54,0,0,1,92.33,30a3.63,3.63,0,0,1,2.72,3.64v.1c0,2.74-2.2,4.18-5.5,4.18H84.08Zm7.21,4.48c0-1.11-.78-1.7-2.13-1.7H86.81V29H89c1.39,0,2.28-.57,2.28-1.72ZM89.57,31.6H86.81v3.57h2.83c1.41,0,2.3-.61,2.3-1.79v0C91.94,32.27,91.14,31.6,89.57,31.6Z"/><path class="cls-3" d="M96.41,32v-9.3h3.26v9.33c0,2.15,1.06,3.21,2.75,3.21s2.75-1,2.75-3.15V22.73h3.24V32c0,4.2-2.39,6.22-6,6.22S96.41,36.14,96.41,32Z"/><path class="cls-3" d="M110.39,22.73h3.16V38h-3.16Z"/><path class="cls-3" d="M116.22,22.73h3.16V35.06h4.8V38h-8Z"/><path class="cls-3" d="M125,22.56h4.91c4.42,0,7.94,3,7.94,7.5v.19c0,4.46-3.52,7.53-7.94,7.53H125Zm3.15,2.85v9.86h1.74c2.39,0,4.46-1.49,4.7-5v-.11a4.57,4.57,0,0,0-4.7-4.71Z"/><path class="cls-3" d="M139.57,22.64h3.15V37.86h-3.15Z"/><path class="cls-3" d="M145,22.9h3.21l6.46,8.87V22.9h3.43V38.12h-3l-6.69-9.2v9.2H145Z"/><path class="cls-3" d="M160.09,30.45v-.2a7.42,7.42,0,0,1,7.77-7.74c4.41.12,5.19,1.59,6.71,2.76l-2.22,2.3a5.47,5.47,0,0,0-4.53-2.12c-2.38,0-4.19,2-4.19,4.78v.17c0,3.13,1.88,4.9,4.33,4.9a9,9,0,0,0,3.48-.63V32h-4V29.23h7.31v7a13.8,13.8,0,0,1-6.93,1.9A7.3,7.3,0,0,1,160.09,30.45Z"/><path class="cls-2" d="M98.83,47A6.5,6.5,0,0,0,96.63,45a6.77,6.77,0,0,0-3.24-.73,6.9,6.9,0,0,0-2,.3,5.84,5.84,0,0,0-1.83.92,4.5,4.5,0,0,0-1.83,3.75,4,4,0,0,0,.49,2.08,4.5,4.5,0,0,0,1.28,1.4,7.31,7.31,0,0,0,1.82,1l2.14.74c.92.3,1.84.62,2.77,1a9.92,9.92,0,0,1,2.51,1.36,6.52,6.52,0,0,1,1.83,2.13,6.75,6.75,0,0,1,.7,3.26,7.31,7.31,0,0,1-.75,3.42,7.12,7.12,0,0,1-2,2.37,8.18,8.18,0,0,1-2.75,1.38,11.1,11.1,0,0,1-3.12.45,12,12,0,0,1-2.38-.25,10.82,10.82,0,0,1-2.28-.72,9.47,9.47,0,0,1-2-1.24,8.91,8.91,0,0,1-1.65-1.71l2.32-1.72a7,7,0,0,0,2.4,2.37,6.79,6.79,0,0,0,3.64,1,7,7,0,0,0,2-.31,5.86,5.86,0,0,0,1.89-1,5.33,5.33,0,0,0,1.38-1.6,5,5,0,0,0,0-4.51,4.78,4.78,0,0,0-1.44-1.53,8.74,8.74,0,0,0-2-1c-.77-.27-1.58-.55-2.43-.82s-1.72-.58-2.57-.93a8.83,8.83,0,0,1-2.28-1.36,6.31,6.31,0,0,1-1.62-2.08,7.61,7.61,0,0,1,.15-6.3,7,7,0,0,1,2-2.28,8.34,8.34,0,0,1,2.72-1.3,10.82,10.82,0,0,1,3-.41,10.1,10.1,0,0,1,4.59,1A7.93,7.93,0,0,1,101,45.25Z"/><path class="cls-2" d="M114.09,69.12h-2.68V57.74l-9.89-15h3.36l7.94,12.8,8-12.8H124l-9.89,15Z"/><path class="cls-2" d="M145.06,65.21h.07V42.71h2.69V69.12h-3.36L129.09,46.4H129V69.12h-2.69V42.71h3.36Z"/><path class="cls-2" d="M175.91,64.83a11.48,11.48,0,0,1-1.62,1.91,10.93,10.93,0,0,1-2.2,1.58,13,13,0,0,1-2.76,1.08,13.23,13.23,0,0,1-3.31.4,14.28,14.28,0,0,1-5.52-1,12.94,12.94,0,0,1-7.22-7.27,14.82,14.82,0,0,1-1-5.56,14.56,14.56,0,0,1,1-5.56,13.07,13.07,0,0,1,7.26-7.28A14.23,14.23,0,0,1,166,42a13.54,13.54,0,0,1,2.86.3,13.72,13.72,0,0,1,2.63.85,11.49,11.49,0,0,1,2.24,1.32,8.11,8.11,0,0,1,1.68,1.74l-2.24,1.64a6.88,6.88,0,0,0-1.1-1.26,7,7,0,0,0-1.63-1.12,9.85,9.85,0,0,0-2-.79,9,9,0,0,0-2.37-.29,11,11,0,0,0-4.61.93A10.37,10.37,0,0,0,158,47.87a11,11,0,0,0-2.16,3.66,12.86,12.86,0,0,0-.75,4.39,12.58,12.58,0,0,0,.77,4.38A11.38,11.38,0,0,0,158,64a10.51,10.51,0,0,0,3.45,2.51,10.88,10.88,0,0,0,4.57.93,10.23,10.23,0,0,0,4.33-.94,8.15,8.15,0,0,0,3.43-3Z"/></svg>