<svg xmlns="http://www.w3.org/2000/svg" viewBox="0 0 249.85 124.91"><path fill="#8296a1" d="M45.37 98.05H26.21V38.58l21.31 13.87v39.56zm-21.59 0H0V78.07l11.89-8.93 11.89 8.93z"/><path fill="#005594" d="M115.79 97.86l-9.27-25.55-.82 1.13.1.28-.24-.08-.74 1 1.48.47 3.63 10-14.36-4.83-1.54-9.1 1.46.47c-.25-.37-.48-.72-.65-1a5.145 5.145 0 0 1-.22-.47l-.8-.26-1.06-6.24 1.32.25c.109-.378.249-.746.42-1.1l-2.34-.44a.739.739 0 0 0-.21 0l-11.36 2.08-11.65-2.1a.739.739 0 0 0-.21 0l-2.28.44c.331.313.641.647.93 1l.76-.14-.14.89c.354.503.665 1.035.93 1.59l.38-2.53 2.37.42 8.44 1.51v7.07L70.05 70.2c0 .32.1.63.1 1 .005.08.005.16 0 .24l10 2.4v10.38l-13.3-3.97c-.49.71-1 1.48-1.62 2.26L63.6 93.19l-16.78 4 3.88-10.76 3.49-1.17-.75-1-2.24.75.9-2.48-.82-1.11-5.91 16.36a.56.56 0 0 0 .11.58c.111.12.267.189.43.19h.14l18.06-4.36 16.29 4.35c.098.03.202.03.3 0l16.5-4.4 17.87 4.4a.54.54 0 0 0 .56-.17.562.562 0 0 0 .16-.51zm-35.67-.53l-6.93-1.85-8.34-2.24 1.81-11.87 13.51 4-.05 11.96zm1.15-31.83l10.31-1.89 1.07 6.3-11.38 2.73V65.5zm0 8.33l11.58-2.78 1.56 9.26-13.13 3.9-.01-10.38zm11.32 20.43l-11.32 3V85.41l13.33-4 2 11.74-4.01 1.11zm5.15-1.11l-2-11.58 14.65 4.93 3.89 10.73-16.54-4.08zm12.11-48.99a8.759 8.759 0 0 1-1.06 4.5 8.348 8.348 0 0 1-2.82 2.93 12.189 12.189 0 0 1-4 1.6 21.787 21.787 0 0 1-4.59.48h-13V21h13c1.303.008 2.603.142 3.88.4 1.268.237 2.486.69 3.6 1.34a7.18 7.18 0 0 1 3.64 6.67 6.83 6.83 0 0 1-1.47 4.5 8.28 8.28 0 0 1-3.88 2.56v.09a9.098 9.098 0 0 1 2.61.86 7.616 7.616 0 0 1 2.17 1.58 7.437 7.437 0 0 1 1.43 2.26c.349.926.516 1.911.49 2.9zm-8.95-13.71A2.611 2.611 0 0 0 99.67 28a7.431 7.431 0 0 0-3.77-.77h-3.88V34h4.25a5.695 5.695 0 0 0 3.44-.91 3.07 3.07 0 0 0 1.23-2.64h-.04zm1.06 13a2.88 2.88 0 0 0-1.53-2.81 8.8 8.8 0 0 0-4.06-.79h-4.39v7.45h4.44a11.64 11.64 0 0 0 1.91-.16 5.946 5.946 0 0 0 1.8-.58 3.26 3.26 0 0 0 1.83-3.14v.03zm11.76 10.22V21h22v6.65h-14.38v6.19h13.58v6.32h-13.58v6.79h15.19v6.74l-22.81-.02zm41.55-25.94v25.94h-7.89V27.73h-9.23V21h26.36v6.75l-9.24-.02zm28.21 0v25.94h-7.89V27.73h-9.24V21h26.37v6.75l-9.24-.02zm11.45 25.94V21h22v6.65h-14.38v6.19h13.58v6.32h-13.58v6.79h15.19v6.74l-22.81-.02zm44.14 0l-7.1-13h-2.69v13h-7.71V21h12.47c1.543 0 3.082.165 4.59.49 1.422.3 2.777.856 4 1.64a8.582 8.582 0 0 1 2.84 3 9.49 9.49 0 0 1 1.06 4.71 8.69 8.69 0 0 1-1.8 5.58 9.744 9.744 0 0 1-5 3.23l8.54 14-9.2.02zM238.75 31a3.312 3.312 0 0 0-.49-1.87 3.388 3.388 0 0 0-1.25-1.1 5.49 5.49 0 0 0-1.72-.53 11.555 11.555 0 0 0-1.83-.14h-4.22V35h3.75c.67-.003 1.339-.06 2-.17a6.738 6.738 0 0 0 1.86-.57 3.41 3.41 0 0 0 1.9-3.26z"/><path fill="#8296a1" d="M115.35 63.45h2.64c.311-.003.62.038.92.12.262.072.51.19.73.35.209.151.375.354.48.59.125.262.186.55.18.84a1.56 1.56 0 0 1-.36 1.07c-.27.292-.616.504-1 .61.227.01.45.072.65.18.198.102.375.241.52.41.317.357.485.823.47 1.3.006.316-.066.629-.21.91a2 2 0 0 1-.57.66 2.809 2.809 0 0 1-.85.41 3.833 3.833 0 0 1-1 .13h-2.6v-7.58zm1 3.16h1.41c.182.001.363-.019.54-.06.165-.036.321-.104.46-.2a.923.923 0 0 0 .3-.35c.081-.165.118-.347.11-.53a1.149 1.149 0 0 0-.28-.78 1.18 1.18 0 0 0-.92-.34h-1.62v2.26zm0 3.54h1.52c.173.013.347.013.52 0 .187-.037.366-.104.53-.2a1.56 1.56 0 0 0 .42-.39c.122-.198.181-.428.17-.66a1.19 1.19 0 0 0-.44-1 1.89 1.89 0 0 0-1.19-.34h-1.53v2.59zm7.73-6.7v4.66c-.001.25.033.499.1.74.06.252.169.49.32.7.152.221.354.403.59.53.57.267 1.23.267 1.8 0 .234-.13.436-.311.59-.53.151-.21.26-.448.32-.7.067-.241.101-.49.1-.74v-4.66h1v4.82a2.94 2.94 0 0 1-.23 1.21 2.6 2.6 0 0 1-.62.94 2.546 2.546 0 0 1-.93.61 3.167 3.167 0 0 1-2.27-.03 2.546 2.546 0 0 1-.93-.61 2.782 2.782 0 0 1-.63-.94 3.113 3.113 0 0 1-.22-1.21v-4.79h1.01zm7.77 0h1v7.6h-1v-7.6zm4 0h1v6.64h3.49v1h-4.49v-7.64zm6.5 0h2.66c.477-.009.952.055 1.41.19a3.61 3.61 0 0 1 1.05.49c.286.188.536.425.74.7.19.249.348.521.47.81.108.271.188.553.24.84.049.254.076.512.08.77 0 .486-.091.968-.27 1.42a3.673 3.673 0 0 1-.79 1.21 4.01 4.01 0 0 1-1.31.85 4.597 4.597 0 0 1-1.8.32h-2.48v-7.6zm1 6.64h1.3c.42.003.838-.058 1.24-.18a3.047 3.047 0 0 0 1-.53c.294-.244.532-.547.7-.89.177-.389.262-.813.25-1.24a4.275 4.275 0 0 0-.11-.85 2.677 2.677 0 0 0-.45-.93 2.75 2.75 0 0 0-.91-.75 3.245 3.245 0 0 0-1.5-.3h-1.55l.03 5.67zm8.2-6.64h1v7.6h-1v-7.6zm4.06 0h1.36l4.18 6.25v-6.25h1v7.6h-1.31l-4.23-6.24v6.24h-1v-7.6zm16.1 3.35v3.75a4.235 4.235 0 0 1-.64.3c-.238.09-.482.163-.73.22a6.636 6.636 0 0 1-.78.14h-.73c-.592.009-1.18-.1-1.73-.32a4.004 4.004 0 0 1-1.27-.87 3.854 3.854 0 0 1-.8-1.28 4.317 4.317 0 0 1-.27-1.53 4.06 4.06 0 0 1 .3-1.57 3.69 3.69 0 0 1 2.06-2.11 3.992 3.992 0 0 1 1.6-.31 4.881 4.881 0 0 1 1.72.26c.42.163.801.412 1.12.73l-.71.79a2.796 2.796 0 0 0-1-.63 3.695 3.695 0 0 0-1.11-.17 2.741 2.741 0 0 0-2.08.89 2.74 2.74 0 0 0-.58 1 3.288 3.288 0 0 0-.2 1.17c-.005.41.069.818.22 1.2.139.371.349.711.62 1a2.896 2.896 0 0 0 2.11.87c.336.001.671-.032 1-.1.293-.058.577-.159.84-.3v-2.16h-1.69v-1l2.73.03zm7-3.35h4.91v1h-3.87v2.27h3.6v1h-3.6v2.44h4.1v1h-5.11l-.03-7.71zm7.64 0h4.78v1h-3.75v2.35h3.47v1h-3.49v3.28h-1l-.01-7.63zm7.24 0h4.78v1h-3.75v2.35h3.49v1h-3.49v3.28h-1l-.03-7.63zm7.26 0h1v7.6h-1v-7.6zm9.33 1.65a2.186 2.186 0 0 0-.82-.65 2.416 2.416 0 0 0-1-.22c-.4-.007-.796.075-1.16.24a2.563 2.563 0 0 0-.89.66 3.013 3.013 0 0 0-.58 1 3.687 3.687 0 0 0-.2 1.21c-.004.388.061.774.19 1.14.123.347.313.667.56.94.246.276.55.495.89.64.375.165.781.247 1.19.24.4.009.796-.084 1.15-.27.338-.177.626-.435.84-.75l.87.66a3.474 3.474 0 0 1-.3.33 3.001 3.001 0 0 1-.57.44 3.811 3.811 0 0 1-2.01.56 3.775 3.775 0 0 1-1.63-.35 3.848 3.848 0 0 1-1.23-.9 4 4 0 0 1-1.05-2.68 4.534 4.534 0 0 1 .29-1.63c.185-.478.46-.916.81-1.29.355-.362.78-.648 1.25-.84a4.226 4.226 0 0 1 1.61-.3c.507.002 1.01.1 1.48.29.47.183.881.491 1.19.89l-.88.64zm3.34-1.65h1v7.6h-1v-7.6zm4.05 0h4.91v1h-3.87v2.27h3.6v1h-3.6v2.44h4.06v1h-5.1v-7.71zm7.64 0h1.35l4.19 6.25v-6.25h1v7.6h-1.31l-4.23-6.24v6.24h-1v-7.6zm14.91 1.65a2.101 2.101 0 0 0-.82-.65 2.351 2.351 0 0 0-1-.22 2.656 2.656 0 0 0-2.06.9 3.013 3.013 0 0 0-.58 1 3.687 3.687 0 0 0-.2 1.21c.001.388.066.773.19 1.14.127.345.317.664.56.94.248.274.551.492.89.64.378.166.787.248 1.2.24a2.311 2.311 0 0 0 2-1l.87.66a3.474 3.474 0 0 1-.3.33 2.51 2.51 0 0 1-.57.44 3.738 3.738 0 0 1-.85.39 4.001 4.001 0 0 1-2.78-.18 3.9 3.9 0 0 1-2-2.16 4.145 4.145 0 0 1-.26-1.42 4.325 4.325 0 0 1 .29-1.63 3.82 3.82 0 0 1 .81-1.29 3.526 3.526 0 0 1 1.25-.84 4.147 4.147 0 0 1 1.61-.3 4.002 4.002 0 0 1 1.47.29c.472.18.884.489 1.19.89l-.91.62zm5.13 2.71l-2.87-4.36h1.32l2.07 3.34 2.14-3.34h1.25l-2.88 4.36v3.24h-1l-.03-3.24zm-129.4 9.49h-2.45v-1h5.93v1h-2.45v6.64h-1l-.03-6.64zm7.08-.96h.92l3.25 7.6h-1.2l-.76-1.88h-3.62l-.75 1.88h-1.21l3.37-7.6zm1.85 4.82l-1.42-3.49-1.44 3.49h2.86zm4.4-4.82h2.67a3 3 0 0 1 1.2.2c.284.109.54.28.75.5a1.8 1.8 0 0 1 .38.69c.066.238.1.483.1.73.002.243-.042.484-.13.71a2.007 2.007 0 0 1-.96 1.07c-.238.128-.5.206-.77.23l2.15 3.47h-1.28l-1.94-3.35h-1.15v3.35h-1l-.02-7.6zm1 3.35h1.36c.196.015.394.015.59 0 .186-.026.366-.087.53-.18a.94.94 0 0 0 .37-.37c.1-.195.148-.411.14-.63a1.323 1.323 0 0 0-.14-.63.995.995 0 0 0-.37-.37 1.73 1.73 0 0 0-.53-.17 2.845 2.845 0 0 0-.59-.05h-1.36v2.4zm13.11 0v3.74a3.38 3.38 0 0 1-.63.31c-.24.08-.48.15-.74.21-.253.067-.51.114-.77.14a6.524 6.524 0 0 1-.74 0 4.422 4.422 0 0 1-1.72-.32 3.672 3.672 0 0 1-2.07-2.14 4.19 4.19 0 0 1-.28-1.53 4.114 4.114 0 0 1 .3-1.58 3.91 3.91 0 0 1 .82-1.27 3.526 3.526 0 0 1 1.25-.84 4.16 4.16 0 0 1 1.6-.31 4.57 4.57 0 0 1 1.71.27c.423.153.805.399 1.12.72l-.73.78a2.68 2.68 0 0 0-1-.62 3.4 3.4 0 0 0-1.1-.18 2.882 2.882 0 0 0-1.19.24c-.34.155-.646.376-.9.65a2.902 2.902 0 0 0-.58 1 3.512 3.512 0 0 0-.2 1.18c-.008.408.07.814.23 1.19.134.373.346.714.62 1 .265.272.581.489.93.64.371.154.769.232 1.17.23a5.02 5.02 0 0 0 1-.11c.291-.051.571-.149.83-.29v-2.12h-1.69v-1l2.76.01zm2.95-3.35h4.91v1h-3.88v2.27h3.58v1h-3.61V83h4.07v1h-5.1l.03-7.66zm9.22.96h-2.44v-1h5.92v1h-2.44v6.64h-1l-.04-6.64zm5.65-.96h1v7.6h-1v-7.6zm4.06 0h1.36l4.18 6.25v-6.25h1v7.6h-1.26l-4.23-6.25v6.25h-1l-.05-7.6zm16.09 3.35v3.74a3.072 3.072 0 0 1-.63.31c-.23.08-.48.15-.73.21a5.29 5.29 0 0 1-.78.14 6.35 6.35 0 0 1-.73 0c-.592.009-1.18-.1-1.73-.32a3.75 3.75 0 0 1-2.07-2.14 4.412 4.412 0 0 1-.27-1.53 4.312 4.312 0 0 1 .29-1.58 3.91 3.91 0 0 1 .82-1.27 3.608 3.608 0 0 1 1.25-.84 4.2 4.2 0 0 1 1.6-.31 4.662 4.662 0 0 1 1.72.27c.42.158.802.404 1.12.72l-.73.78a2.758 2.758 0 0 0-1-.62 3.464 3.464 0 0 0-1.11-.18 2.741 2.741 0 0 0-2.08.89 2.74 2.74 0 0 0-.58 1 3.278 3.278 0 0 0-.21 1.18c-.003.408.075.812.23 1.19.142.369.353.708.62 1 .271.27.59.487.94.64.37.156.768.234 1.17.23a4.878 4.878 0 0 0 1-.11c.291-.049.572-.147.83-.29v-2.12h-1.65v-1l2.71.01zm8.59-2.39h-2.44v-1h5.92v1h-2.44v6.64h-1l-.04-6.64zm9.15 6.83a4.176 4.176 0 0 1-1.6-.3 3.9 3.9 0 0 1-1.25-.85 3.782 3.782 0 0 1-.81-1.26 4.31 4.31 0 0 1 0-3.16 3.69 3.69 0 0 1 2.06-2.11 4.278 4.278 0 0 1 3.2 0c.472.187.899.473 1.25.84.353.366.632.797.82 1.27a4.446 4.446 0 0 1 0 3.16c-.189.475-.467.91-.82 1.28a3.686 3.686 0 0 1-1.25.85 4.146 4.146 0 0 1-1.6.28zm0-1a2.808 2.808 0 0 0 2.08-.9 2.74 2.74 0 0 0 .58-1c.28-.758.28-1.592 0-2.35a2.74 2.74 0 0 0-.58-1 2.84 2.84 0 0 0-4.16 0 2.74 2.74 0 0 0-.58 1 3.547 3.547 0 0 0 0 2.35c.12.371.318.712.58 1 .251.277.558.499.9.65.368.181.77.28 1.18.29v-.04zm10.01 1a4.176 4.176 0 0 1-1.6-.3 3.686 3.686 0 0 1-1.25-.85 3.983 3.983 0 0 1-.82-1.26 4.446 4.446 0 0 1 0-3.16 3.91 3.91 0 0 1 .82-1.27 3.526 3.526 0 0 1 1.25-.84 4.278 4.278 0 0 1 3.2 0 3.69 3.69 0 0 1 2.06 2.11 4.31 4.31 0 0 1 0 3.16 3.786 3.786 0 0 1-.82 1.28 3.9 3.9 0 0 1-1.25.85 4.175 4.175 0 0 1-1.59.28zm0-1a2.84 2.84 0 0 0 1.18-.25c.342-.151.649-.373.9-.65.258-.291.456-.631.58-1a3.547 3.547 0 0 0 0-2.35 2.902 2.902 0 0 0-.58-1 2.921 2.921 0 0 0-3.26-.65 2.836 2.836 0 0 0-.91.65 2.902 2.902 0 0 0-.58 1 3.547 3.547 0 0 0 0 2.35c.124.369.322.709.58 1 .255.278.565.499.91.65.367.182.77.281 1.18.29v-.04zm6.51-6.79h1V83h3.49v1h-4.53l.04-7.66zm10.71 0h4.78v1h-3.75v2.39h3.49v1h-3.49v3.29h-1l-.03-7.68zm10.72 7.79a4.086 4.086 0 0 1-1.59-.3 3.857 3.857 0 0 1-1.26-.85 3.995 3.995 0 0 1-.81-1.26 4.31 4.31 0 0 1 0-3.16c.185-.472.46-.903.81-1.27a3.657 3.657 0 0 1 1.26-.84 4.11 4.11 0 0 1 1.59-.31 4.16 4.16 0 0 1 1.6.31c.474.189.903.475 1.26.84.347.369.622.8.81 1.27a4.15 4.15 0 0 1-.77 4.44 3.857 3.857 0 0 1-1.26.85 4.157 4.157 0 0 1-1.64.28zm0-1a2.76 2.76 0 0 0 1.18-.25c.347-.148.657-.37.91-.65.258-.291.456-.631.58-1a3.547 3.547 0 0 0 0-2.35 2.902 2.902 0 0 0-.58-1 2.79 2.79 0 0 0-2.09-.89 2.74 2.74 0 0 0-2.1 1.01 2.902 2.902 0 0 0-.58 1 3.547 3.547 0 0 0 0 2.35c.124.369.322.709.58 1 .251.277.558.499.9.65.383.143.792.201 1.2.17v-.04zm6.52-6.79h2.67a3.01 3.01 0 0 1 1.21.2c.282.107.536.278.74.5.183.196.317.432.39.69.066.238.1.483.1.73.002.243-.042.484-.13.71a2.007 2.007 0 0 1-.96 1.07 2 2 0 0 1-.78.23l2.16 3.47h-1.29l-1.93-3.35h-1.15v3.35h-1l-.03-7.6zm1 3.35h1.38c.196.015.394.015.59 0 .186-.026.366-.087.53-.18a.995.995 0 0 0 .37-.37c.1-.195.148-.411.14-.63a1.323 1.323 0 0 0-.14-.63 1.074 1.074 0 0 0-.37-.37 1.73 1.73 0 0 0-.53-.17 2.989 2.989 0 0 0-.59-.05h-1.36l-.02 2.4zm-112.74 9.53h4.91v1h-3.87v2.26h3.6v1h-3.6v2.43h4.08v1h-5.11l-.01-7.69zm7.64 0h1.35l4.19 6.25v-6.25h1v7.6h-1.26l-4.23-6.25v6.25h-1l-.05-7.6zm9.62 0h4.91v1h-3.88v2.26h3.61v1h-3.61v2.43h4.07v1h-5.1v-7.69zm7.63 0h2.68c.409-.011.816.057 1.2.2.282.113.537.283.75.5.171.203.3.437.38.69.066.241.1.49.1.74.001.239-.043.477-.13.7-.084.225-.21.432-.37.61a2.002 2.002 0 0 1-.59.46 1.813 1.813 0 0 1-.77.23l2.15 3.47h-1.28l-1.89-3.35h-1.2v3.35h-1l-.03-7.6zm1 3.35h1.36c.196.015.394.015.59 0 .186-.026.366-.087.53-.18a.91.91 0 0 0 .37-.36c.098-.195.146-.412.14-.63a1.276 1.276 0 0 0-.14-.63.94.94 0 0 0-.37-.37 1.494 1.494 0 0 0-.53-.18 3.873 3.873 0 0 0-.59 0h-1.33l-.03 2.35zm13.11 0v3.75a4.084 4.084 0 0 1-.63.3c-.24.08-.48.16-.74.22a7.666 7.666 0 0 1-1.51.16 4.263 4.263 0 0 1-1.72-.33 3.726 3.726 0 0 1-1.28-.87 3.775 3.775 0 0 1-.79-1.27 4.321 4.321 0 0 1 0-3.11c.188-.47.467-.898.82-1.26a3.686 3.686 0 0 1 1.25-.85 4.135 4.135 0 0 1 1.6-.3 4.605 4.605 0 0 1 1.71.26c.419.161.8.406 1.12.72l-.73.79a2.71 2.71 0 0 0-1-.63 3.4 3.4 0 0 0-1.1-.18 2.882 2.882 0 0 0-1.19.24 2.998 2.998 0 0 0-.9.65 3.105 3.105 0 0 0-.58 1 3.548 3.548 0 0 0-.21 1.14c-.006.412.072.82.23 1.2.13.375.342.716.62 1 .265.272.581.489.93.64.371.154.769.232 1.17.23.336-.004.67-.037 1-.1.29-.059.57-.16.83-.3v-2.11h-1.69v-1l2.79.01zm4.75 1.01l-2.88-4.36h1.32l2.07 3.34 2.14-3.34h1.25l-2.87 4.36v3.24h-1l-.03-3.24zm9.91-4.36h2.67a3.13 3.13 0 0 1 1.2.2c.285.107.541.278.75.5a1.8 1.8 0 0 1 .38.69c.069.241.106.49.11.74a2 2 0 0 1-1.09 1.77 1.86 1.86 0 0 1-.78.23l2.16 3.47h-1.29l-1.93-3.35h-1.15v3.35h-1l-.03-7.6zm1 3.35h1.35c.2.015.4.015.6 0 .183-.026.36-.088.52-.18a.863.863 0 0 0 .37-.36c.102-.194.151-.411.14-.63a1.18 1.18 0 0 0-.14-.63.88.88 0 0 0-.37-.37 1.457 1.457 0 0 0-.52-.18c-.2-.015-.4-.015-.6 0h-1.35v2.35zm6.63-3.35h4.91v1h-3.88v2.26h3.61v1h-3.61v2.43h4.07v1h-5.1v-7.69zm9.22.97h-2.45v-1h5.93v1h-2.45v6.63h-1l-.03-6.63zm5.61-.97h2.67c.412-.011.823.056 1.21.2.28.11.533.281.74.5.179.199.312.434.39.69.066.241.1.49.1.74.001.239-.043.477-.13.7-.084.225-.21.432-.37.61a2.062 2.062 0 0 1-.59.46 1.814 1.814 0 0 1-.78.23l2.16 3.47h-1.29l-1.93-3.35h-1.15v3.35h-1l-.03-7.6zm1 3.35h1.36c.196.015.394.015.59 0 .186-.026.366-.087.53-.18.153-.086.28-.21.37-.36.098-.195.146-.412.14-.63a1.276 1.276 0 0 0-.14-.63.995.995 0 0 0-.37-.37 1.494 1.494 0 0 0-.53-.18 3.873 3.873 0 0 0-.59 0h-1.36v2.35zM219.01 97a4.11 4.11 0 0 1-1.59-.31 3.824 3.824 0 0 1-1.26-.84 3.904 3.904 0 0 1-.81-1.27 4.31 4.31 0 0 1 0-3.16 3.74 3.74 0 0 1 2.07-2.11 4.086 4.086 0 0 1 1.59-.3 4.135 4.135 0 0 1 1.6.3c.472.197.901.486 1.26.85.347.365.622.793.81 1.26a4.31 4.31 0 0 1 0 3.16 4.05 4.05 0 0 1-.81 1.27c-.36.361-.788.647-1.26.84a4.16 4.16 0 0 1-1.6.31zm0-1a2.79 2.79 0 0 0 2.09-.89c.258-.291.456-.631.58-1 .116-.359.173-.733.17-1.11 0-.402-.067-.801-.2-1.18a3.105 3.105 0 0 0-.58-1 2.878 2.878 0 0 0-.91-.65 2.757 2.757 0 0 0-1.18-.24 2.82 2.82 0 0 0-1.18.24 2.998 2.998 0 0 0-.9.65 3.105 3.105 0 0 0-.58 1 3.563 3.563 0 0 0 0 2.36c.124.369.322.709.58 1a2.741 2.741 0 0 0 2.08.89l.03-.07zm6.52-6.78h4.78v1h-3.75v2.38h3.49v1h-3.49v3.28h-1l-.03-7.66zm7.24 0h1v7.6h-1v-7.6zm5.64.97h-2.44v-1h5.88v1h-2.4v6.63h-1l-.04-6.63zm5.88 5.04c.17.272.417.488.71.62.282.13.589.198.9.2.176-.002.351-.029.52-.08.176-.051.342-.133.49-.24.148-.106.27-.242.36-.4.099-.166.147-.357.14-.55a.819.819 0 0 0-.28-.67 2.491 2.491 0 0 0-.69-.39l-.9-.3a3.346 3.346 0 0 1-.9-.4 2 2 0 0 1-1-1.87c.005-.244.056-.485.15-.71a1.91 1.91 0 0 1 .46-.68c.228-.226.501-.403.8-.52a2.91 2.91 0 0 1 1.17-.21c.403-.001.804.056 1.19.17.398.123.748.368 1 .7l-.84.76a1.325 1.325 0 0 0-.54-.48 1.666 1.666 0 0 0-.81-.19 1.852 1.852 0 0 0-.71.12c-.173.062-.33.161-.46.29a1 1 0 0 0-.24.38.997.997 0 0 0-.07.37.938.938 0 0 0 .28.74 1.9 1.9 0 0 0 .69.42c.293.116.594.213.9.29.316.085.621.206.91.36.27.157.505.368.69.62.198.324.296.7.28 1.08.008.345-.064.687-.21 1a2.106 2.106 0 0 1-.57.74 2.305 2.305 0 0 1-.83.46 3.21 3.21 0 0 1-1 .17 3.8 3.8 0 0 1-1.39-.26 2.248 2.248 0 0 1-1-.8l.8-.74zM2.44 115v5.92c.001.314.041.626.12.93.081.323.219.628.41.9.198.275.454.504.75.67a2.75 2.75 0 0 0 2.29 0c.296-.166.552-.395.75-.67.188-.274.327-.578.41-.9.078-.304.118-.616.12-.93V115H8.6v6.13a4.009 4.009 0 0 1-.29 1.53 3.743 3.743 0 0 1-.79 1.2 3.63 3.63 0 0 1-1.19.78 3.93 3.93 0 0 1-1.47.27 3.994 3.994 0 0 1-1.47-.27 3.672 3.672 0 0 1-1.19-.78 3.781 3.781 0 0 1-.78-1.2 3.99 3.99 0 0 1-.29-1.53V115h1.31zm11.17 9.7a.916.916 0 0 1-.64-.26.86.86 0 0 1-.26-.64c0-.239.093-.469.26-.64a.91.91 0 0 1 1.27 0 .869.869 0 0 1 .27.64.892.892 0 0 1-.27.64.819.819 0 0 1-.63.26zm5.47-2.1a2.1 2.1 0 0 0 .91.79c.354.164.74.25 1.13.25.228.002.455-.035.67-.11.224-.059.435-.161.62-.3a1.51 1.51 0 0 0 .46-.51c.12-.21.179-.449.17-.69a1.05 1.05 0 0 0-.35-.85 3.007 3.007 0 0 0-.88-.49c-.35-.14-.74-.26-1.15-.38a4.92 4.92 0 0 1-1.14-.51 2.74 2.74 0 0 1-.88-.88 2.69 2.69 0 0 1-.36-1.49 2.55 2.55 0 0 1 .18-.9c.135-.33.335-.63.59-.88.288-.28.628-.5 1-.65a3.774 3.774 0 0 1 1.5-.27 5.36 5.36 0 0 1 1.51.22c.506.157.95.468 1.27.89l-1.06 1a1.76 1.76 0 0 0-.7-.62 2.249 2.249 0 0 0-1-.23 2.387 2.387 0 0 0-.91.14 1.799 1.799 0 0 0-.59.37 1.349 1.349 0 0 0-.31.49 1.458 1.458 0 0 0-.09.48c-.021.348.111.687.36.93.256.234.555.418.88.54.35.13.73.25 1.14.37.403.094.79.246 1.15.45.344.197.641.467.87.79.261.407.387.887.36 1.37.004.434-.085.863-.26 1.26a2.82 2.82 0 0 1-.72.94c-.31.263-.671.461-1.06.58a4.024 4.024 0 0 1-1.31.21 4.733 4.733 0 0 1-1.76-.33 2.894 2.894 0 0 1-1.32-1l1.08-.98zm9.99 2.1a.89.89 0 0 1-.63-.26.83.83 0 0 1-.27-.64c0-.241.097-.472.27-.64a.858.858 0 0 1 .63-.26.901.901 0 0 1 .91.9.93.93 0 0 1-.27.64.841.841 0 0 1-.64.26zm10.78-9.7h3.4a6.12 6.12 0 0 1 1.8.24c.474.133.923.343 1.33.62.36.247.678.551.94.9.239.306.438.642.59 1a5.75 5.75 0 0 1 .41 2.06 4.864 4.864 0 0 1-.34 1.8 4.44 4.44 0 0 1-1 1.53 5.134 5.134 0 0 1-1.66 1.09 5.995 5.995 0 0 1-2.29.41h-3.18V115zm1.31 8.44h1.69a5.492 5.492 0 0 0 1.58-.23 4.009 4.009 0 0 0 1.3-.67c.371-.308.674-.689.89-1.12a3.569 3.569 0 0 0 .32-1.58 4.633 4.633 0 0 0-.15-1.08 3.27 3.27 0 0 0-.57-1.19 3.189 3.189 0 0 0-1.15-.94 4.088 4.088 0 0 0-1.91-.39h-2v7.2zM52.25 115h6.24v1.23h-4.93v2.88h4.59v1.23h-4.59v3.1h5.17v1.23h-6.48V115zm10.38 0h3.39a4.135 4.135 0 0 1 1.53.25c.38.136.722.358 1 .65.224.25.388.547.48.87.088.302.135.615.14.93-.002.315-.05.628-.14.93a2.236 2.236 0 0 1-.48.88c-.284.282-.625.5-1 .64a4.013 4.013 0 0 1-1.53.25h-2.08v4.26h-1.31V115zm1.31 4.26h1.72a5.09 5.09 0 0 0 .76-.06 2 2 0 0 0 .66-.22c.196-.111.359-.274.47-.47.24-.506.24-1.094 0-1.6a1.248 1.248 0 0 0-.47-.47 2.232 2.232 0 0 0-.66-.22 4.031 4.031 0 0 0-.76-.06h-1.72v3.1zM74.78 115h1.19l4.13 9.66h-1.53l-1-2.39h-4.6l-1 2.39h-1.46l4.27-9.66zm2.35 6.13l-1.8-4.43-1.83 4.43h3.63zM83.4 115h3.45a4.135 4.135 0 0 1 1.53.25c.38.136.722.358 1 .65.224.25.388.547.48.87.088.302.135.615.14.93a2.518 2.518 0 0 1-.17.9c-.11.285-.269.549-.47.78a2.587 2.587 0 0 1-.75.58 2.66 2.66 0 0 1-1 .3l2.74 4.4h-1.64l-2.45-4.26h-1.47v4.26h-1.31V115h-.08zm1.31 4.26h1.72c.255 0 .509-.02.76-.06.235-.033.461-.108.67-.22.196-.111.359-.274.47-.47.126-.247.185-.523.17-.8a1.69 1.69 0 0 0-.17-.8 1.248 1.248 0 0 0-.47-.47 2.303 2.303 0 0 0-.67-.22 3.872 3.872 0 0 0-.76-.06h-1.72v3.1zm10.85-3.07h-3.11V115h7.53v1.23h-3.13v8.43h-1.31v-8.43l.02-.04zm7.76-1.19h1.94l3.07 7.32h.06l3-7.32h1.94v9.66h-1.31v-7.94l-3.26 7.94h-.87l-3.26-7.94v7.94h-1.31V115zm14.53 0h6.24v1.23h-4.93v2.88h4.59v1.23h-4.59v3.1h5.17v1.23h-6.48V115zm10.34 0h1.72l5.32 7.95V115h1.31v9.66h-1.66l-5.37-7.94v7.94h-1.31V115h-.01zm14.92 1.19h-3.1V115h7.53v1.23h-3.11v8.43h-1.31v-8.43l-.01-.04zm18.13 8.68a5.14 5.14 0 0 1-2-.39 4.643 4.643 0 0 1-1.59-1.07 5 5 0 0 1-1-1.6 5.51 5.51 0 0 1 0-4 5 5 0 0 1 1-1.61c.45-.46.992-.821 1.59-1.06a5.478 5.478 0 0 1 4.06 0 4.713 4.713 0 0 1 1.59 1.06c.43.47.77 1.016 1 1.61a5.51 5.51 0 0 1 0 4 4.857 4.857 0 0 1-1 1.6c-.45.463-.991.828-1.59 1.07a5.213 5.213 0 0 1-2.06.39zm0-1.23a3.656 3.656 0 0 0 1.5-.31 3.287 3.287 0 0 0 1.14-.83c.324-.354.576-.769.74-1.22a4.405 4.405 0 0 0 0-3 3.662 3.662 0 0 0-.74-1.22 3.405 3.405 0 0 0-1.14-.83 3.656 3.656 0 0 0-1.5-.31 3.492 3.492 0 0 0-1.5.31 3.567 3.567 0 0 0-1.15.83c-.319.356-.567.77-.73 1.22a4.405 4.405 0 0 0 0 3c.161.451.409.865.73 1.22a3.43 3.43 0 0 0 1.15.83c.471.213.983.319 1.5.31zm8.96-8.64h6.07v1.23h-4.76v3h4.44v1.23h-4.44v4.18h-1.31V115zm15.71 0h6.24v1.23h-4.93v2.88h4.63v1.23h-4.59v3.1h5.17v1.23h-6.48V115h-.04zm10.38 0h1.72l5.32 7.95V115h1.31v9.66h-1.66l-5.38-7.94v7.94h-1.31V115zm12.91 0h6.23v1.23h-4.92v2.88h4.58v1.23h-4.58v3.1h5.17v1.23h-6.48V115zm10.38 0h3.39a4.135 4.135 0 0 1 1.53.25c.364.137.69.36.95.65.227.249.395.547.49.87.085.303.128.616.13.93.002.307-.052.612-.16.9a2.856 2.856 0 0 1-.47.78 2.9 2.9 0 0 1-.75.58c-.311.164-.65.266-1 .3l2.74 4.4h-1.58l-2.46-4.26h-1.54v4.26h-1.31V115h.04zm1.31 4.26h1.72c.255 0 .509-.02.76-.06.232-.032.455-.107.66-.22.196-.111.359-.274.47-.47.24-.506.24-1.094 0-1.6a1.248 1.248 0 0 0-.47-.47 2.14 2.14 0 0 0-.66-.22 3.872 3.872 0 0 0-.76-.06h-1.76l.04 3.1zm17.29-.04V124a4.247 4.247 0 0 1-.8.38 8.153 8.153 0 0 1-.93.28c-.329.08-.663.14-1 .18-.33 0-.64.05-.93.05a5.588 5.588 0 0 1-2.19-.41 4.58 4.58 0 0 1-1.62-1.11 4.718 4.718 0 0 1-1-1.61 5.531 5.531 0 0 1 0-4 5 5 0 0 1 1-1.61c.45-.46.992-.821 1.59-1.06a5.176 5.176 0 0 1 2-.39 6.071 6.071 0 0 1 2.18.33 4 4 0 0 1 1.42.92l-.93 1a3.46 3.46 0 0 0-1.26-.79 4.385 4.385 0 0 0-1.4-.23 3.431 3.431 0 0 0-1.5.31 3.52 3.52 0 0 0-1.88 2.05 4.118 4.118 0 0 0-.26 1.49 3.997 3.997 0 0 0 .29 1.52c.178.456.447.871.79 1.22.334.352.74.628 1.19.81.466.204.971.306 1.48.3a6.966 6.966 0 0 0 1.32-.13 3.252 3.252 0 0 0 1.05-.38v-2.69h-2.04v-1.23l3.43.02zm6.67 1.28l-3.62-5.5h1.68l2.63 4.25 2.71-4.25h1.6l-3.65 5.54v4.13h-1.35v-4.17zM.07 105.21h249.57v.58H.07z"/><path fill="#2ea5de" d="M58.73 62.06c-5.02-.006-9.094 4.06-9.1 9.08v.02a12.384 12.384 0 0 0 1.36 5.75c1.89 3.25 7.74 10.29 7.74 10.29s5.5-6.84 7.27-9.8a13.297 13.297 0 0 0 1.85-6.24 9.1 9.1 0 0 0-9.1-9.1h-.02zm-.22 12.21a3.15 3.15 0 1 1 0-6.3 3.15 3.15 0 0 1 0 6.3z"/><path fill="#2ea5de" d="M101.28 60.25a5.82 5.82 0 0 0-5.82 5.82v.01a7.894 7.894 0 0 0 .87 3.67 76.699 76.699 0 0 0 5 6.59s3.52-4.34 4.6-6.28a8.455 8.455 0 0 0 1.18-4 5.83 5.83 0 0 0-5.83-5.81zm-.14 7.81a2 2 0 1 1-.001-3.999 2 2 0 0 1 .001 3.999z"/><path fill="#e0e3e6" d="M62.85 88.43c.22 1.18-1.63 2.51-4.12 3s-4.69-.15-4.9-1.34c-.15-.86.78-1.79 2.25-2.41l-.52-.65c-2.19.86-3.61 2.3-3.37 3.66.32 1.74 3.24 2.67 6.54 2.08s5.71-2.49 5.4-4.23a2.74 2.74 0 0 0-2-1.87c-.17.23-.34.44-.5.64.68.22 1.15.61 1.22 1.12z"/><path fill="#005594" d="M53.85 90.05c.21 1.19 2.41 1.78 4.9 1.34s4.34-1.78 4.12-3c-.09-.51-.56-.9-1.25-1.16l-1.09 1.38a2.3 2.3 0 0 1-3.56.03l-.85-1c-1.49.62-2.42 1.55-2.27 2.41z"/><path fill="#9ddcf9" d="M68.94 62.37l9.75 1.78V21.22h-6v-5.29h-3.84v-5.29h-3V0h-3v10.64h-3.08v5.29h-3.79v5.29h-6V64c.49-.597 1.04-1.143 1.64-1.63l.19-.16c.333-.277.68-.538 1.04-.78.359-.22.73-.42 1.11-.6l.69-.29c.536-.22 1.088-.401 1.65-.54l.38-.07c.66-.125 1.329-.192 2-.2a11.32 11.32 0 0 1 7.73 3.07l2.53-.43z"/><path fill="#e0e3e6" d="M105.15 79.15c-.13 1-2 1.51-4.11 1.21s-3.76-1.32-3.63-2.28c.09-.63.9-1.08 2-1.24l-.36-.43c-1.62.19-2.8.84-2.93 1.76-.19 1.35 1.9 2.75 4.65 3.13s5.15-.4 5.33-1.74c.15-1.06-1.13-2.15-3-2.75l-.28.35c1.47.45 2.44 1.23 2.33 1.99z"/><path fill="#005594" d="M97.41 78.08c-.13 1 1.49 2 3.63 2.28s4-.24 4.11-1.21c.11-.76-.86-1.54-2.31-2l-.21.26a1.751 1.751 0 0 1-1.34.65 1.73 1.73 0 0 1-1.33-.63s-.23-.27-.49-.6c-1.16.17-1.97.62-2.06 1.25z"/></svg>